<svg width="538" height="83" viewBox="0 0 538 83" fill="none" xmlns="http://www.w3.org/2000/svg">
<path d="M521.767 46.7065C520.522 44.9176 511.847 47.3056 509.857 47.7075C503.99 49.3995 500.005 51.9573 498.23 57.1249C497.777 57.3896 497.509 57.8857 497.538 58.4098C496.907 58.7562 496.285 59.1025 495.674 59.4749C496.594 57.201 497.371 54.8718 498 52.5009C498.25 52.3451 498.337 52.0214 498.197 51.7615C498.358 51.1311 498.497 50.4955 498.641 49.8565C500.199 48.2078 501.737 46.5298 503.559 45.1548C510.259 47.0234 516.985 41.5838 519.985 35.6109C520.653 33.9675 522.473 30.6597 521.543 29.0405C519.448 27.4818 512.069 30.9938 510.49 32.0278C506.112 34.7674 503.457 39.0796 502.929 44.0359C501.609 45.082 500.353 46.2057 499.167 47.4008C500.009 43.2775 500.639 39.1074 501.592 35.0047C502.58 33.5691 503.356 31.9047 504.633 30.6908C511.873 33.6661 520.061 24.827 521.521 18.0367C521.779 17.0878 520.847 16.1993 519.907 16.4053C513.209 17.6799 508.443 20.4317 505.745 24.5845C505.01 25.7082 504.457 26.9407 504.106 28.2368C503.649 28.6292 503.493 29.2695 503.718 29.8283C503.306 30.2682 502.911 30.7254 502.543 31.2033C503.5 27.7363 504.74 24.3533 506.249 21.088C512.656 18.9994 517.419 12.9867 518.198 6.31237C518.215 4.67585 519.017 0.16287 516.74 0C515.501 0.240771 514.547 1.38537 513.408 1.92752C511.312 3.23679 509.146 4.59103 507.52 6.68293C504.797 10.2937 503.114 16.296 505.074 20.6412C503.03 25.1746 501.441 29.8995 500.329 34.7465C499.864 33.2994 499.472 31.8294 499.155 30.3425C502.821 25.2908 504.697 18.0971 502.655 11.8973C502.027 10.4028 501.065 6.82143 499.275 6.62743C497.779 6.52878 497.185 10.02 496.253 11.2063C492.443 17.0944 492.164 25.4606 497.858 30.2974C498.337 32.6329 498.987 34.9298 499.805 37.1691C498.972 41.3253 498.331 45.5249 497.38 49.6586C497.149 49.0399 496.918 48.4203 496.688 47.8004C499.91 41.2664 498.376 32.9469 493.385 27.6789C492.138 26.4961 487.348 21.59 486.364 24.8404C484.466 35.7923 484.518 42.6015 495.472 48.1866C495.927 49.4036 496.388 50.6158 496.857 51.8233C496.058 54.8646 495.022 57.8385 493.757 60.7177C493.521 60.85 493.401 61.1222 493.461 61.3861C493.288 61.7811 493.099 62.1758 492.91 62.5673C492.671 61.9184 492.423 61.2725 492.164 60.6294C493.376 59.0396 492.254 56.1579 492.141 54.3119C491.08 48.836 490.16 44.6417 484.743 41.133C483.024 40.1771 477.88 38.4107 478.119 41.7356C480.949 48.874 482.275 59.3045 490.914 60.9202C491.344 61.9835 491.748 63.0585 492.126 64.1449C489.684 68.3808 487.391 73.3146 483.024 75.8638C482.296 76.2362 483.005 77.2925 483.725 76.9219C486.91 75.2421 488.82 72.0262 490.747 69.1116C491.4 68.8415 491.987 68.4189 492.614 68.114C496.151 72.9076 506.385 70.4831 510.353 67.4594C511.622 66.4013 514.92 64.247 514.359 62.4598C513.77 60.9323 507.198 61.1973 505.033 61.0069C500.951 60.8838 495.39 61.8399 493.083 65.9286C492.716 66.0895 492.441 66.4077 492.335 66.7945C492.242 66.836 492.15 66.8724 492.058 66.9158C493.06 65.1801 493.969 63.3928 494.782 61.561C495.898 60.8055 497.054 60.1118 498.246 59.4828C505.024 62.0667 513.416 59.7305 517.938 54.1021C518.908 52.6949 522.607 48.0728 521.767 46.7065V46.7065ZM520.527 29.5999C520.708 29.6183 520.84 29.7796 520.821 29.9605C520.82 29.9685 520.819 29.9766 520.818 29.9844C519.418 37.4501 512.746 45.4267 504.539 44.3808C505.178 43.7971 517.602 34.9737 512.796 35.8811C510.211 38.6069 507.128 40.763 504.174 43.0595C505.199 35.1261 513.174 30.49 520.527 29.5999V29.5999ZM520.165 17.4254C520.335 17.4074 520.488 17.5307 520.506 17.7009C520.509 17.7333 520.508 17.7659 520.501 17.7978C519.187 23.8399 512.131 31.9326 505.388 29.9202C507.649 27.733 510.41 26.0133 513.077 24.3681C513.77 23.9386 513.077 22.8788 512.384 23.3083C509.884 24.8531 507.321 26.4758 505.125 28.4552C506.976 21.8208 513.858 18.5148 520.165 17.4254V17.4254ZM505.415 14.904C505.786 7.97686 511.262 4.16694 516.74 1.03933C517.614 1.59005 517.214 5.12115 517.153 6.19131C516.476 12.1486 512.4 17.4911 506.858 19.7754C508.094 17.2233 509.482 14.7475 511.014 12.3616C511.456 11.6689 510.313 11.1182 509.873 11.8005C508.284 14.2789 506.855 16.8564 505.596 19.5173C505.321 17.9955 505.261 16.4426 505.415 14.904V14.904ZM499.276 7.66691C504.359 13.8546 502.672 22.5983 498.92 29.0943C498.227 25.0523 498.263 20.929 499.723 17.0117C500.007 16.2531 498.869 15.6835 498.582 16.4506C497.113 20.3921 496.964 24.5034 497.558 28.554C491.585 21.5888 495.428 14.3429 499.276 7.66691V7.66691ZM486.66 30.5126C486.891 29.7748 487.015 24.299 487.845 24.7701C489.634 25.6913 491.251 26.9147 492.625 28.386C497.127 33.1137 498.551 40.3768 496.19 46.4623C494.805 42.7194 493.487 38.9545 492.235 35.1676C491.979 34.3901 490.77 34.7866 491.023 35.5641C492.248 39.2724 493.536 42.9584 494.886 46.6215C488.316 43.3676 485.455 37.7324 486.66 30.5126V30.5126ZM513.176 62.6908C514.282 63.1652 510.308 66.2253 509.759 66.615C506.003 69.4066 497.053 71.5939 493.56 67.6731C496.713 66.4002 500.163 66.2583 503.519 66.1023C504.338 66.0643 504.265 64.7948 503.448 64.8329C500.348 64.9767 497.203 65.1394 494.226 66.0832C498.599 60.3876 506.95 62.1331 513.176 62.6908V62.6908ZM479.399 41.0435C488.557 40.2642 491.497 52.0334 491.618 59.338C491.371 58.5571 484.845 44.694 484.821 49.4478C486.992 52.6843 488.862 56.1133 490.406 59.6913C484.3 58.0582 482.303 51.3198 480.748 45.9219C480.514 45.1583 480.27 44.3962 479.998 43.6446C479.931 43.0593 478.568 41.2306 479.399 41.0435V41.0435ZM510.45 53.1816C506.64 54.477 502.804 55.7983 499.185 57.5579C502.058 48.9492 512.767 47.7144 520.577 47.0632C520.755 47.0568 520.904 47.1959 520.911 47.3736C520.913 47.4249 520.902 47.4757 520.88 47.5222C517.096 55.9559 508.874 61.5496 499.524 58.8117C503.152 57.0192 507.014 55.6944 510.844 54.3904C511.618 54.1323 511.224 52.9235 510.45 53.1869V53.1816H510.45Z" fill="#D88269"/>
<path d="M29.0391 71H35.2266L26.0391 32.4453H24.9375L0.796875 71H7.875L11.2969 65.2578H27.7734L29.0391 71ZM14.3203 60.1719L23.2969 45.1016L26.6484 60.1719H14.3203ZM85.4119 39.0547L86.5369 33.2188H65.0212L57.6853 71H79.2009L80.3494 65.0938H64.9275L66.9666 54.6406H80.1853L81.3337 48.7344H68.115L69.99 39.0547H85.4119ZM115.16 71.6328C122.566 71.6328 127.722 67.3906 128.871 61.625C129.972 56.3047 126.644 52.6719 121.324 49.5547C118.042 47.6797 114.48 46.1094 115.089 42.8047C115.511 40.4609 117.832 38.3516 120.878 38.3516C123.761 38.3516 126.222 40.0391 126.902 42.7109L131.73 39.4531C130.769 35.5391 126.855 32.5391 121.746 32.5391C115.558 32.5391 110.332 36.2891 109.23 41.6094C107.941 47.8906 112.207 50.9141 115.886 53.0703C118.769 54.7578 123.621 57.3359 122.847 61.25C122.261 64.1328 119.097 65.6562 115.98 65.6562C112.488 65.6562 109.582 63.8516 107.707 60.3125L102.925 63.6172C104.636 68.2109 108.761 71.6328 115.16 71.6328ZM180.298 33.2188H155.22L154.072 39.1016H163.587L157.376 71H163.47L169.681 39.1016H179.15L180.298 33.2188ZM224.202 33.2188L221.108 49.1562H206.272L209.366 33.2188H203.272L195.937 71H202.03L205.124 55.0391H219.96L216.866 71H222.96L230.296 33.2188H224.202ZM276.216 39.0547L277.341 33.2188H255.825L248.489 71H270.005L271.153 65.0938H255.731L257.77 54.6406H270.989L272.137 48.7344H258.919L260.794 39.0547H276.216ZM324.362 33.2188H299.284L298.135 39.1016H307.651L301.44 71H307.534L313.745 39.1016H323.213L324.362 33.2188ZM340 71H346.094L353.43 33.2188H347.336L340 71ZM388.662 71.6094C393.865 71.6094 398.389 69.5938 402.232 66.2422L399.654 61.1094C396.561 63.8047 393.326 65.6562 389.506 65.6562C382.475 65.6562 378.186 59.5156 379.709 51.6875C381.162 44.0938 387.467 38.5859 394.053 38.5859C397.615 38.5859 400.475 40.25 402.959 44.2109L407.459 40.25C405.115 35.7031 400.568 32.9609 395.529 32.6094C387.068 32.0938 375.818 38.6094 373.592 51.6641C371.623 63.125 377.951 71.6094 388.662 71.6094ZM436.058 71.6328C443.465 71.6328 448.621 67.3906 449.769 61.625C450.871 56.3047 447.543 52.6719 442.223 49.5547C438.941 47.6797 435.379 46.1094 435.988 42.8047C436.41 40.4609 438.73 38.3516 441.777 38.3516C444.66 38.3516 447.121 40.0391 447.801 42.7109L452.629 39.4531C451.668 35.5391 447.754 32.5391 442.644 32.5391C436.457 32.5391 431.23 36.2891 430.129 41.6094C428.84 47.8906 433.105 50.9141 436.785 53.0703C439.668 54.7578 444.519 57.3359 443.746 61.25C443.16 64.1328 439.996 65.6562 436.879 65.6562C433.387 65.6562 430.48 63.8516 428.605 60.3125L423.824 63.6172C425.535 68.2109 429.66 71.6328 436.058 71.6328Z" fill="white"/>
</svg>
