<svg width="512" height="512" viewBox="0 0 512 512" fill="none" xmlns="http://www.w3.org/2000/svg">
<path d="M256 42.6667C213.807 42.6667 172.561 55.1785 137.478 78.6198C102.396 102.061 75.0524 135.379 58.9057 174.361C42.759 213.342 38.5343 256.237 46.7658 297.619C54.9973 339.002 75.3153 377.014 105.151 406.849C134.986 436.685 172.998 457.003 214.381 465.234C255.763 473.466 298.658 469.241 337.639 453.094C376.621 436.948 409.939 409.604 433.38 374.522C456.822 339.439 469.333 298.193 469.333 256C469.333 227.985 463.815 200.244 453.094 174.361C442.373 148.478 426.659 124.96 406.849 105.151C387.04 85.3407 363.522 69.6267 337.639 58.9057C311.756 48.1847 284.015 42.6667 256 42.6667V42.6667ZM346.586 264.393L271.686 345.649C269.689 347.817 267.263 349.547 264.563 350.73C261.864 351.913 258.948 352.524 256 352.524C253.052 352.524 250.136 351.913 247.437 350.73C244.737 349.547 242.311 347.817 240.314 345.649L165.414 264.393C159.979 258.956 155.745 252.439 152.987 245.263C150.229 238.086 149.009 230.411 149.406 222.733C149.802 215.056 151.806 207.547 155.288 200.693C158.77 193.838 163.652 187.792 169.619 182.944C180.774 174.496 194.644 170.441 208.593 171.55C222.542 172.66 235.597 178.857 245.276 188.962L256 199.68L266.724 188.954C276.403 178.848 289.458 172.651 303.407 171.542C317.356 170.432 331.226 174.487 342.381 182.935C348.349 187.783 353.233 193.83 356.715 200.685C360.198 207.54 362.203 215.05 362.599 222.729C362.996 230.408 361.775 238.084 359.016 245.261C356.258 252.438 352.023 258.956 346.586 264.393V264.393Z" fill="#243732"/>
</svg>
