<svg id="Capa_1" enable-background="new 0 0 512 512" height="512" viewBox="0 0 512 512" width="512" xmlns="http://www.w3.org/2000/svg"><g><g><g><g><path d="m416.259 339.625h-320.518v149.369c0 8.288 6.718 15.006 15.006 15.006h290.507c8.287 0 15.006-6.718 15.006-15.006v-149.369z" fill="#e09d7f"/><path d="m401.253 486h-290.506c-8.287 0-15.006-6.718-15.006-15.006v18c0 8.288 6.718 15.006 15.006 15.006h290.507c8.287 0 15.006-6.718 15.006-15.006v-18c-.001 8.288-6.719 15.006-15.007 15.006z" fill="#d88f72"/><path d="m95.741 339.625h320.518v18h-320.518z" fill="#d88f72"/><path d="m416.259 242.683h-320.518l-33.669 96.942h387.856z" fill="#fcdac5"/><path d="m68.324 321.625-6.252 18h387.856l-6.252-18z" fill="#f6cdb5"/></g></g><g fill="#ffb8c7"><path d="m285.194 20.203c-5.069-16.174-37.223-18.797-40.856 7.755-4.132 30.201 40.856 52.073 40.856 52.073s44.987-21.872 40.856-52.073c-3.632-26.552-35.787-23.929-40.856-7.755z"/><path d="m399.363 98.838c-4.542-14.493-33.354-16.843-36.608 6.949-3.702 27.061 36.608 46.66 36.608 46.66s40.31-19.598 36.608-46.66c-3.254-23.792-32.066-21.442-36.608-6.949z"/><path d="m120.452 69.821c-5.505-17.566-40.427-20.415-44.372 8.423-4.487 32.8 44.372 56.555 44.372 56.555s48.859-23.755 44.372-56.555c-3.945-28.838-38.867-25.989-44.372-8.423z"/></g><path d="m324.91 22.923c-6.02 19.467-29.711 33.708-37.337 37.863-1.484.808-3.273.808-4.757 0-7.626-4.156-31.317-18.396-37.337-37.864-.498 1.549-.891 3.218-1.14 5.035-4.132 30.201 40.856 52.073 40.856 52.073s44.987-21.872 40.856-52.073c-.25-1.817-.643-3.485-1.141-5.034z" fill="#ffacca"/><path d="m434.633 100.371c-5.785 16.726-25.898 28.982-32.869 32.812-1.499.824-3.302.824-4.801 0-6.971-3.83-27.084-16.086-32.869-32.812-.601 1.633-1.066 3.425-1.338 5.415-3.702 27.061 36.608 46.659 36.608 46.659s40.31-19.598 36.608-46.659c-.273-1.99-.738-3.782-1.339-5.415z" fill="#ffacca"/><path d="m163.824 73.544c-6.188 21.728-32.856 37.606-41.001 42.019-1.482.803-3.261.803-4.743 0-8.145-4.413-34.813-20.29-41.001-42.019-.427 1.465-.771 3.024-1 4.7-4.487 32.8 44.372 56.555 44.372 56.555s48.859-23.755 44.372-56.555c-.228-1.677-.572-3.235-.999-4.7z" fill="#ffacca"/><path d="m220.066 242.683h71.868c24.892-19.081 52.761-48.835 47.932-84.14-7.456-54.505-73.461-49.12-83.866-15.919-10.405-33.201-76.41-38.586-83.866 15.919-4.829 35.304 23.04 65.059 47.932 84.14z" fill="#ffb8c7"/><path d="m312.341 224.683h-112.681c6.537 6.73 13.582 12.769 20.407 18h71.868c6.824-5.232 13.869-11.27 20.406-18z" fill="#ffacca"/></g><g><path d="m457.404 337.325-33.734-97.131c-1.05-3.023-3.899-5.049-7.099-5.049h-104.085c26.52-24.999 38.569-51.624 34.988-77.808-4.428-32.365-27.215-45.679-47.065-47.347-17.922-1.512-34.657 5.328-44.429 17.122-4.809-5.767-11.373-10.438-19.167-13.486-15.517-6.065-33.035-4.942-46.859 3.005-3.598 2.068-4.838 6.661-2.77 10.26 2.069 3.599 6.664 4.84 10.26 2.769 9.764-5.612 22.753-6.391 33.896-2.036 8.801 3.44 15.175 9.648 17.488 17.029.982 3.134 3.886 5.267 7.171 5.267s6.189-2.133 7.171-5.267c3.953-12.615 19.423-21.08 35.98-19.687 8.738.734 29.486 5.557 33.433 34.408 4.245 31.03-20.638 58.081-43.153 75.771h-66.861c-22.515-17.691-47.398-44.741-43.153-75.77.516-3.773 1.366-7.321 2.523-10.548 1.402-3.906-.628-8.209-4.535-9.611-3.905-1.398-8.209.63-9.611 4.535-1.51 4.208-2.61 8.78-3.268 13.586-3.582 26.184 8.467 52.809 34.988 77.808h-104.084c-3.2 0-6.049 2.026-7.099 5.049l-33.734 97.131c-1.775 4.689 2.089 10.119 7.099 9.98h26.219v142.145c0 12.434 10.116 22.55 22.55 22.55h63.395c4.15 0 7.515-3.364 7.515-7.515s-3.365-7.515-7.515-7.515h-63.395c-4.147 0-7.521-3.374-7.521-7.521v-142.144h198.163c4.15 0 7.515-3.364 7.515-7.515s-3.365-7.515-7.515-7.515h-228.846l28.514-82.102h310.453l28.514 82.102h-108.576c-4.15 0-7.515 3.364-7.515 7.515s3.364 7.515 7.515 7.515h77.892v142.145c0 4.147-3.374 7.521-7.521 7.521h-197.619c-4.15 0-7.515 3.364-7.515 7.515s3.364 7.515 7.515 7.515h197.619c12.434 0 22.55-10.115 22.55-22.55v-142.146h26.219c5.011.139 8.874-5.292 7.099-9.98z"/><path d="m331.024 436.879h46.251c4.15 0 7.515-3.364 7.515-7.515s-3.365-7.515-7.515-7.515h-46.251c-4.15 0-7.515 3.364-7.515 7.515.001 4.15 3.365 7.515 7.515 7.515z"/><path d="m331.024 466.958h46.251c4.15 0 7.515-3.364 7.515-7.515s-3.365-7.515-7.515-7.515h-46.251c-4.15 0-7.515 3.364-7.515 7.515.001 4.151 3.365 7.515 7.515 7.515z"/><path d="m281.966 86.45c2.074 1.008 4.497 1.008 6.571 0 2.041-.992 49.917-24.701 45.094-59.951-2.465-18.022-15.266-25.445-26.423-26.383-8.388-.706-16.333 1.91-21.957 6.721-5.625-4.811-13.575-7.431-21.958-6.721-11.157.938-23.957 8.362-26.422 26.383-4.823 35.249 43.054 58.958 45.095 59.951zm-30.205-57.915c1.489-10.886 8.653-13.096 12.791-13.444.467-.039.932-.059 1.395-.059 5.682 0 10.861 2.899 12.134 6.962.982 3.134 3.887 5.267 7.171 5.267 3.285 0 6.189-2.133 7.171-5.267 1.377-4.392 7.319-7.42 13.528-6.903 4.138.348 11.302 2.557 12.791 13.444 2.536 18.542-20.891 35.675-33.489 42.675-12.607-7.004-36.028-24.135-33.492-42.675z"/><path d="m396.357 159.005c2.074 1.008 4.497 1.008 6.571 0 1.849-.899 45.235-22.387 40.839-54.528-2.272-16.605-14.086-23.447-24.385-24.313-7.479-.631-14.58 1.614-19.74 5.788-5.16-4.174-12.259-6.417-19.741-5.788-10.298.866-22.112 7.707-24.384 24.313-4.397 32.141 38.99 53.629 40.84 54.528zm-25.949-52.49c1.261-9.215 7.278-11.081 10.753-11.374.383-.032.765-.048 1.145-.048 4.717 0 9.139 2.412 10.166 5.689.982 3.134 3.886 5.267 7.171 5.267s6.189-2.133 7.171-5.268c1.11-3.541 6.182-6.074 11.311-5.64 3.475.292 9.493 2.159 10.753 11.374 2.189 16.003-18.02 30.93-29.234 37.238-11.223-6.313-31.425-21.238-29.236-37.238z"/><path d="m116.902 141.324c2.074 1.008 4.497 1.008 6.571 0 2.199-1.069 53.793-26.617 48.618-64.443-2.626-19.195-16.243-27.1-28.111-28.097-9.145-.778-17.795 2.161-23.793 7.51-5.998-5.347-14.647-8.285-23.793-7.51-11.868.997-25.485 8.902-28.11 28.097-5.174 37.826 46.419 63.373 48.618 64.443zm-33.727-62.406c1.679-12.271 9.792-14.764 14.479-15.157.521-.044 1.041-.065 1.557-.065 6.448 0 12.342 3.339 13.807 8.014.982 3.134 3.886 5.267 7.171 5.267s6.189-2.133 7.171-5.267c1.582-5.048 8.328-8.542 15.364-7.948 10.919.918 13.759 9.89 14.479 15.157 2.824 20.65-23.278 39.609-37.013 47.175-13.744-7.571-39.84-26.529-37.015-47.176z"/></g></g></svg>