<svg id="Capa_1" enable-background="new 0 0 512 512" height="512" viewBox="0 0 512 512" width="512" xmlns="http://www.w3.org/2000/svg"><g><g><g><g><path d="m331 128h-110c-1.657 0-3-1.343-3-3v-81c0-1.657 1.343-3 3-3h110c1.657 0 3 1.343 3 3v81c0 1.657-1.343 3-3 3z" fill="#f6a96c"/></g><path d="m248 125v-14.5h-2c-5.79 0-10.5-4.71-10.5-10.5v-31c0-5.79 4.71-10.5 10.5-10.5h2v-14.5c0-1.657 1.343-3 3-3h-30c-1.657 0-3 1.343-3 3v81c0 1.657 1.343 3 3 3h30c-1.657 0-3-1.343-3-3z" fill="#ea9b58"/><g><path d="m243 100v-31c0-1.657 1.343-3 3-3h60c1.657 0 3 1.343 3 3v31c0 1.657-1.343 3-3 3h-60c-1.657 0-3-1.343-3-3z" fill="#eaf6ff"/></g><g><path d="m263 100v-31c0-1.657 1.343-3 3-3h-20c-1.657 0-3 1.343-3 3v31c0 1.657 1.343 3 3 3h20c-1.657 0-3-1.343-3-3z" fill="#d8ecfe"/></g></g><g><g><path d="m331 297h-110c-1.657 0-3-1.343-3-3v-135c0-1.657 1.343-3 3-3h110c1.657 0 3 1.343 3 3v135c0 1.657-1.343 3-3 3z" fill="#f6a96c"/></g><path d="m248 294v-14.5h-2c-5.79 0-10.5-4.71-10.5-10.5v-85c0-5.79 4.71-10.5 10.5-10.5h2v-14.5c0-1.657 1.343-3 3-3h-30c-1.657 0-3 1.343-3 3v135c0 1.657 1.343 3 3 3h30c-1.657 0-3-1.343-3-3z" fill="#ea9b58"/><g><path d="m243 269v-85c0-1.657 1.343-3 3-3h60c1.657 0 3 1.343 3 3v85c0 1.657-1.343 3-3 3h-60c-1.657 0-3-1.343-3-3z" fill="#fff"/></g><g><path d="m243 269v-85c0-1.657 1.343-3 3-3h60c1.657 0 3 1.343 3 3v85c0 1.657-1.343 3-3 3h-60c-1.657 0-3-1.343-3-3z" fill="#fff"/></g><g><path d="m263 269v-85c0-1.657 1.343-3 3-3h-20c-1.657 0-3 1.343-3 3v85c0 1.657 1.343 3 3 3h20c-1.657 0-3-1.343-3-3z" fill="#f3f0f3"/></g><g><path d="m243 269c0 1.657 1.343 3 3 3h60c1.657 0 3-1.343 3-3v-22.5h-66z" fill="#00c27a"/></g><g><path d="m263 269v-22.5h-20v22.5c0 1.657 1.343 3 3 3h20c-1.657 0-3-1.343-3-3z" fill="#09a755"/></g></g></g><g><g><path d="m103.543 266.381c2.544 7.437 4.643 14.83 6.356 22.119 1.713-7.29 3.812-14.683 6.356-22.119 4.623-13.512 10.271-26.074 16.622-37.386.015-1.137.022-2.277.022-3.421 0-37.331-7.812-70.994-20.331-94.776-1.137-2.159-4.201-2.159-5.337 0-12.519 23.782-20.331 57.445-20.331 94.776 0 1.144.008 2.284.022 3.421 6.35 11.312 11.998 23.874 16.621 37.386z" fill="#00c27a"/><path d="m103.543 266.381c2.544 7.437 4.643 14.83 6.356 22.119.795-3.385 1.664-6.79 2.637-10.215-3.554-16.121-5.536-33.948-5.536-52.711 0-29.314 4.819-56.363 12.95-78.145-2.224-5.957-4.693-11.523-7.382-16.631-1.137-2.159-4.201-2.159-5.337 0-12.519 23.782-20.331 57.445-20.331 94.776 0 1.144.008 2.284.022 3.421 6.35 11.312 11.998 23.874 16.621 37.386z" fill="#09a755"/><g><path d="m70.406 306.658h42.959c-1.898-13-5.132-26.57-9.822-40.277-11.447-33.46-29.174-61.097-48.324-78.34-1.767-1.591-4.566-.634-4.989 1.707-4.575 25.36-1.658 58.063 9.789 91.523 3.047 8.906 6.542 17.393 10.387 25.387z" fill="#00c27a"/><path d="m70.406 306.658h20.842c-3.846-7.995-7.345-16.48-10.392-25.387-9.532-27.861-13.13-55.182-11.432-78.191-4.591-5.63-9.352-10.67-14.205-15.039-1.767-1.591-4.566-.634-4.989 1.707-4.575 25.36-1.658 58.063 9.789 91.523 3.047 8.906 6.542 17.393 10.387 25.387z" fill="#09a755"/><path d="m149.392 306.658c3.845-7.994 7.34-16.482 10.386-25.387 11.447-33.46 14.364-66.163 9.789-91.523-.422-2.34-3.221-3.298-4.989-1.707-19.15 17.243-36.877 44.88-48.324 78.34-4.689 13.707-7.924 27.277-9.822 40.277z" fill="#00c27a"/><path d="m127.205 306.658c1.883-9.048 4.397-18.294 7.582-27.604 9.11-26.629 22.199-49.563 36.816-66.511-.088-8.069-.759-15.726-2.034-22.796-.422-2.34-3.221-3.298-4.989-1.707-19.15 17.243-36.877 44.88-48.324 78.34-4.689 13.707-7.924 27.277-9.822 40.277h20.771z" fill="#09a755"/></g><path d="m184.662 306.658h-149.526c-3.232 0-5.615 3.021-4.862 6.165l22.795 95.177h113.66l22.796-95.177c.753-3.143-1.63-6.165-4.863-6.165z" fill="#f6a96c"/><path d="m52.829 407h41.867l-22.556-94.177c-.753-3.144 1.63-6.165 4.862-6.165h-41.866c-3.232 0-5.615 3.021-4.862 6.165z" fill="#ea9b58"/><path d="m30.205 414.663c1.783 9.701 6.732 18.139 13.658 24.337h132.072c6.925-6.198 11.875-14.636 13.658-24.337l.323-1.759c.565-3.072-1.794-5.904-4.918-5.904h-150.199c-3.123 0-5.482 2.832-4.918 5.904z" fill="#f3f0f3"/><g><path d="m30.205 414.663c1.783 9.701 6.732 18.139 13.658 24.337h52.202c-6.925-6.198-11.875-14.636-13.658-24.337l-.323-1.759c-.565-3.072 1.794-5.904 4.918-5.904h-52.203c-3.123 0-5.482 2.832-4.918 5.904z" fill="#e2dee2"/></g></g></g><g><g><g><path d="m475 252h-110c-1.657 0-3-1.343-3-3v-135c0-1.657 1.343-3 3-3h110c1.657 0 3 1.343 3 3v135c0 1.657-1.343 3-3 3z" fill="#f6a96c"/></g><g><path d="m396 249v-14.5h-6c-5.79 0-10.5-4.71-10.5-10.5v-85c0-5.79 4.71-10.5 10.5-10.5h6v-14.5c0-1.657 1.343-3 3-3h-34c-1.657 0-3 1.343-3 3v135c0 1.657 1.343 3 3 3h34c-1.657 0-3-1.343-3-3z" fill="#ea9b58"/></g><g><path d="m387 224v-85c0-1.657 1.343-3 3-3h60c1.657 0 3 1.343 3 3v85c0 1.657-1.343 3-3 3h-60c-1.657 0-3-1.343-3-3z" fill="#fe6c55"/></g><g><path d="m450 136h-60c-1.657 0-3 1.343-3 3v85c0 .756.289 1.438.75 1.966l64.5-88.931c-.55-.629-1.349-1.035-2.25-1.035z" fill="#fed402"/></g><g><path d="m422.088 178.622-34.287-41.649c-.493.534-.801 1.243-.801 2.027v85c0 .756.289 1.438.75 1.966z" fill="#fff"/></g></g></g><g><g><path d="m388.669 349.052h37.168c1.929-13.716-2.355-28.135-12.903-38.683-11.466-11.466-27.509-15.551-42.247-12.275-1.165.259-2.069 1.163-2.328 2.328-3.275 14.738.809 30.78 12.275 42.247 2.481 2.479 5.186 4.593 8.035 6.383z" fill="#00c27a"/><path d="m388.669 349.052h37.17c.143-1.051.253-2.105.328-3.162-10.497-.798-20.77-5.193-28.799-13.222-9.74-9.74-14.133-22.781-13.233-35.521-4.494-.342-9.029-.035-13.447.947-1.165.259-2.069 1.163-2.328 2.328-3.275 14.738.809 30.78 12.275 42.247 2.481 2.479 5.185 4.593 8.034 6.383z" fill="#09a755"/><path d="m461.928 349.052c2.85-1.79 5.554-3.903 8.035-6.384 11.466-11.466 15.55-27.509 12.275-42.247-.259-1.165-1.163-2.069-2.328-2.328-14.738-3.275-30.781.809-42.247 12.275-10.548 10.548-14.832 24.968-12.903 38.683h37.168z" fill="#00c27a"/><path d="m441.652 349.052c1.514-9.038 5.741-17.708 12.716-24.683 8.066-8.066 18.396-12.462 28.944-13.23.059-3.593-.291-7.193-1.074-10.717-.259-1.165-1.163-2.069-2.328-2.328-14.738-3.275-30.781.809-42.247 12.275-10.548 10.548-14.832 24.968-12.903 38.683z" fill="#09a755"/></g><path d="m383.543 439h83.511l20.067-83.784c.753-3.144-1.63-6.165-4.863-6.165h-113.92c-3.232 0-5.615 3.021-4.862 6.165z" fill="#f6a96c"/><g><path d="m383.543 439h36.083l-20.067-83.784c-.753-3.144 1.63-6.165 4.862-6.165h-36.083c-3.232 0-5.615 3.021-4.862 6.165z" fill="#ea9b58"/></g></g><g><path d="m499.5 471h-487c-2.761 0-5-2.239-5-5v-22c0-2.761 2.239-5 5-5h487c2.761 0 5 2.239 5 5v22c0 2.761-2.239 5-5 5z" fill="#a79ba7"/></g><g><path d="m78 466v-22c0-2.761 2.239-5 5-5h-70.5c-2.761 0-5 2.239-5 5v22c0 2.761 2.239 5 5 5h70.5c-2.761 0-5-2.239-5-5z" fill="#918291"/></g><g><path d="m221 135.5h110c5.79 0 10.5-4.71 10.5-10.5v-81c0-5.79-4.71-10.5-10.5-10.5h-110c-5.79 0-10.5 4.71-10.5 10.5v81c0 5.79 4.71 10.5 10.5 10.5zm4.5-87h101v72h-101z"/><path d="m306 58.5h-60c-5.79 0-10.5 4.71-10.5 10.5v31c0 5.79 4.71 10.5 10.5 10.5h60c5.79 0 10.5-4.71 10.5-10.5v-31c0-5.79-4.71-10.5-10.5-10.5zm-4.5 37h-51v-22h51z"/><path d="m221 304.5h110c5.79 0 10.5-4.71 10.5-10.5v-135c0-5.79-4.71-10.5-10.5-10.5h-110c-5.79 0-10.5 4.71-10.5 10.5v135c0 5.79 4.71 10.5 10.5 10.5zm4.5-141h101v126h-101z"/><path d="m365 259.5h110c5.79 0 10.5-4.71 10.5-10.5v-67c0-4.143-3.357-7.5-7.5-7.5s-7.5 3.357-7.5 7.5v62.5h-101v-126h101v28.5c0 4.143 3.357 7.5 7.5 7.5s7.5-3.357 7.5-7.5v-33c0-5.79-4.71-10.5-10.5-10.5h-110c-5.79 0-10.5 4.71-10.5 10.5v135c0 5.79 4.71 10.5 10.5 10.5z"/><path d="m390 128.5c-5.79 0-10.5 4.71-10.5 10.5v85c0 5.79 4.71 10.5 10.5 10.5h60c5.79 0 10.5-4.71 10.5-10.5v-85c0-5.79-4.71-10.5-10.5-10.5zm48.296 15-16.584 22.865-18.824-22.865zm-43.796 13.41 18.112 22.002-18.112 24.973zm51 62.59h-43.796l43.796-60.385z"/><path d="m499.5 431.5h-22.937l17.852-74.537c.896-3.746.043-7.629-2.342-10.652-2.386-3.024-5.963-4.759-9.814-4.759h-1.541c8.884-12.224 12.195-27.667 8.841-42.758-.886-3.988-4.035-7.137-8.021-8.022-17.869-3.971-36.256 1.371-49.178 14.293-2.693 2.693-5.037 5.635-7.056 8.749-2.02-3.116-4.371-6.055-7.066-8.749-12.921-12.92-31.302-18.264-49.177-14.293-3.984.885-7.133 4.032-8.022 8.022-3.353 15.091-.042 30.534 8.842 42.758h-1.541c-3.852 0-7.429 1.734-9.814 4.759-2.385 3.023-3.238 6.906-2.342 10.652l17.852 74.537h-182.64c2.633-4.719 4.552-9.92 5.574-15.481l.323-1.758c.673-3.661-.307-7.4-2.689-10.261-2.382-2.859-5.883-4.5-9.605-4.5h-8.522l20.342-84.93c.897-3.746.043-7.629-2.342-10.653s-5.962-4.759-9.814-4.759h-23.685c2.11-5.027 4.09-10.178 5.897-15.459 11.511-33.646 15.089-67.485 10.074-95.283-.678-3.758-3.339-6.858-6.943-8.092-3.604-1.233-7.607-.412-10.445 2.144-7.05 6.348-13.749 13.833-19.977 22.243-2.262-29.393-9.292-56.343-20.379-77.405-1.826-3.471-5.392-5.627-9.305-5.627 0 0 0 0-.001 0-3.913 0-7.478 2.155-9.305 5.626-11.087 21.063-18.117 48.014-20.379 77.406-6.228-8.411-12.927-15.896-19.977-22.244-2.838-2.554-6.839-3.377-10.444-2.143-3.604 1.233-6.265 4.334-6.943 8.092-5.015 27.798-1.438 61.637 10.074 95.283 1.807 5.281 3.787 10.432 5.897 15.459h-23.686c-3.851 0-7.428 1.734-9.813 4.758-2.386 3.024-3.24 6.907-2.343 10.653v.001l20.34 84.93h-8.521c-3.722 0-7.222 1.64-9.604 4.499-2.382 2.86-3.363 6.6-2.69 10.261l.323 1.759c1.022 5.562 2.942 10.762 5.575 15.481h-15.903c-6.893 0-12.5 5.607-12.5 12.5v22c0 6.893 5.607 12.5 12.5 12.5h362.5c4.143 0 7.5-3.357 7.5-7.5s-3.357-7.5-7.5-7.5h-360v-17h482v17h-87c-4.143 0-7.5 3.357-7.5 7.5s3.357 7.5 7.5 7.5h89.5c6.893 0 12.5-5.607 12.5-12.5v-22c0-6.893-5.607-12.5-12.5-12.5zm-336.106-231.852c2.438 23.483-1.34 51.804-10.711 79.195-2.387 6.978-5.108 13.771-8.096 20.314h-29.255c1.899-10.052 4.568-20.26 8.019-30.35 9.372-27.392 23.731-52.09 40.043-69.159zm-53.495-57.076c9.909 22.715 15.5 52.371 15.5 83.002 0 .474-.012.946-.015 1.419-5.915 10.779-11.126 22.49-15.481 34.855-4.355-12.368-9.574-24.075-15.49-34.855-.003-.474-.015-.945-.015-1.419.001-30.631 5.592-60.287 15.501-83.002zm-53.495 57.076c16.311 17.069 30.671 41.769 40.042 69.16 2.236 6.536 4.142 13.122 5.729 19.683-.815 3.575-1.523 7.13-2.15 10.666h-24.814c-2.988-6.543-5.708-13.336-8.096-20.314-9.371-27.393-13.15-55.71-10.711-79.195zm116.49 231.852h-125.99c-4.422-4.611-7.643-10.426-9.083-17h75.179c4.142 0 7.5-3.357 7.5-7.5s-3.358-7.5-7.5-7.5h-54.255l-20.44-85.342h143.188l-20.44 85.342h-13.053c-4.142 0-7.5 3.357-7.5 7.5s3.358 7.5 7.5 7.5h33.976c-1.439 6.574-4.661 12.389-9.082 17zm270.073-115.828c8.591-8.593 20.552-12.516 32.472-10.78 1.735 11.92-2.188 23.881-10.779 32.472-1.552 1.552-3.218 2.947-4.97 4.188h-27.889c.262-9.634 4.161-18.876 11.166-25.88zm-67.809-10.78c11.918-1.734 23.881 2.188 32.473 10.78 4.948 4.948 8.338 11.016 10 17.547-.491 2.74-.759 5.525-.814 8.333h-25.917c-1.75-1.24-3.411-2.638-4.962-4.188-8.592-8.593-12.516-20.555-10.78-32.472zm14.301 126.608-17.95-74.948h107.58l-17.95 74.948z"/><path d="m306 173.5h-60c-5.79 0-10.5 4.71-10.5 10.5v85c0 5.79 4.71 10.5 10.5 10.5h60c5.79 0 10.5-4.71 10.5-10.5v-85c0-5.79-4.71-10.5-10.5-10.5zm-4.5 91h-51v-10.5h51zm0-25.5h-51v-50.5h51z"/></g></g></svg>