<svg enable-background="new 0 0 512 512" height="512" viewBox="0 0 512 512" width="512" xmlns="http://www.w3.org/2000/svg"><g id="E730_x2C__Nature_x2C__night_x2C__night_stars_x2C__planets_x2C__sky"><path d="m486 170.34-35.13 19.21-19.21 35.13-19.21-35.13-35.13-19.21 35.13-19.21 19.21-35.13 19.21 35.13z" fill="#f7d694"/><path d="m186 420.34-35.13 19.21-19.21 35.13-19.21-35.13-35.13-19.21 35.13-19.21 19.21-35.13 19.21 35.13z" fill="#f7d694"/><path d="m334.68 240.34-60.99 33.35-33.35 60.99-33.35-60.99-60.99-33.35 60.99-33.35 33.35-60.99 33.35 60.99z" fill="#fcd884"/><path d="m416 431.66-35.13 19.21-19.21 35.13-19.21-35.13-35.13-19.21 35.13-19.21 19.21-35.13 19.21 35.13z" fill="#ffcd02"/><path d="m134.68 80.34-35.13 19.21-19.21 35.13-19.21-35.13-35.13-19.21 35.13-19.21 19.21-35.13 19.21 35.13z" fill="#ffcd02"/><path d="m240.34 344.68c-3.656 0-7.02-1.995-8.774-5.202l-31.944-58.419-58.42-31.945c-3.208-1.754-5.202-5.118-5.202-8.774s1.995-7.02 5.202-8.774l58.42-31.944 31.944-58.42c1.754-3.208 5.118-5.202 8.774-5.202s7.02 1.995 8.774 5.202l31.945 58.42 58.419 31.944c3.207 1.754 5.202 5.118 5.202 8.774s-1.995 7.02-5.202 8.774l-58.419 31.945-31.945 58.419c-1.754 3.207-5.118 5.202-8.774 5.202zm-73.497-104.34 44.945 24.577c1.678.917 3.058 2.297 3.976 3.976l24.576 44.944 24.577-44.944c.917-1.679 2.297-3.059 3.976-3.976l44.944-24.577-44.944-24.576c-1.679-.918-3.059-2.298-3.976-3.976l-24.577-44.945-24.576 44.945c-.918 1.678-2.298 3.058-3.976 3.976z"/><path d="m80.34 144.68c-3.656 0-7.02-1.995-8.774-5.202l-17.804-32.56-32.56-17.804c-3.207-1.754-5.202-5.118-5.202-8.774s1.995-7.02 5.202-8.774l32.56-17.804 17.804-32.56c1.754-3.207 5.118-5.202 8.774-5.202s7.02 1.995 8.774 5.202l17.804 32.56 32.56 17.804c3.208 1.754 5.202 5.118 5.202 8.774s-1.995 7.02-5.202 8.774l-32.56 17.804-17.804 32.56c-1.754 3.208-5.118 5.202-8.774 5.202zm-33.497-64.34 19.085 10.436c1.678.918 3.058 2.298 3.976 3.976l10.436 19.085 10.436-19.085c.918-1.678 2.298-3.058 3.976-3.976l19.085-10.436-19.085-10.436c-1.678-.918-3.058-2.298-3.976-3.976l-10.436-19.085-10.436 19.085c-.918 1.678-2.298 3.058-3.976 3.976z"/><path d="m431.66 234.68c-3.655 0-7.02-1.995-8.773-5.202l-17.805-32.56-32.56-17.804c-3.207-1.754-5.202-5.118-5.202-8.774s1.995-7.02 5.202-8.774l32.56-17.804 17.805-32.56c1.754-3.208 5.118-5.202 8.773-5.202s7.02 1.995 8.773 5.202l17.805 32.56 32.56 17.804c3.207 1.754 5.202 5.118 5.202 8.774s-1.995 7.02-5.202 8.774l-32.56 17.804-17.805 32.56c-1.753 3.208-5.118 5.202-8.773 5.202zm-33.497-64.34 19.085 10.436c1.679.918 3.059 2.298 3.976 3.976l10.437 19.085 10.437-19.085c.917-1.678 2.297-3.058 3.976-3.976l19.085-10.436-19.085-10.436c-1.679-.918-3.059-2.298-3.976-3.976l-10.437-19.085-10.437 19.085c-.917 1.678-2.297 3.058-3.976 3.976z"/><path d="m131.66 484.68c-3.656 0-7.02-1.995-8.774-5.202l-17.804-32.56-32.56-17.805c-3.208-1.754-5.202-5.118-5.202-8.773s1.995-7.02 5.202-8.773l32.56-17.805 17.804-32.56c1.754-3.207 5.118-5.202 8.774-5.202s7.02 1.995 8.774 5.202l17.804 32.56 32.56 17.805c3.208 1.754 5.202 5.118 5.202 8.773s-1.995 7.02-5.202 8.773l-32.56 17.805-17.804 32.56c-1.754 3.207-5.118 5.202-8.774 5.202zm-33.497-64.34 19.085 10.437c1.678.917 3.058 2.297 3.976 3.976l10.436 19.085 10.436-19.085c.918-1.679 2.298-3.059 3.976-3.976l19.085-10.437-19.085-10.437c-1.678-.917-3.058-2.297-3.976-3.976l-10.436-19.085-10.436 19.085c-.918 1.679-2.298 3.059-3.976 3.976z"/><path d="m361.66 496c-3.655 0-7.02-1.995-8.773-5.202l-17.805-32.56-32.56-17.805c-3.207-1.754-5.202-5.118-5.202-8.773s1.995-7.02 5.202-8.773l32.56-17.805 17.805-32.56c1.754-3.207 5.118-5.202 8.773-5.202s7.02 1.995 8.773 5.202l17.805 32.56 32.56 17.805c3.207 1.754 5.202 5.118 5.202 8.773s-1.995 7.02-5.202 8.773l-32.56 17.805-17.805 32.56c-1.753 3.207-5.118 5.202-8.773 5.202zm-33.497-64.34 19.085 10.437c1.679.917 3.059 2.297 3.976 3.976l10.437 19.085 10.437-19.085c.917-1.679 2.297-3.059 3.976-3.976l19.085-10.437-19.085-10.437c-1.679-.917-3.059-2.297-3.976-3.976l-10.437-19.085-10.437 19.085c-.917 1.679-2.297 3.059-3.976 3.976z"/></g></svg>