<svg id="Layer_1" enable-background="new 0 0 512 512" height="512" viewBox="0 0 512 512" width="512" xmlns="http://www.w3.org/2000/svg"><g id="XMLID_1085_"><path id="XMLID_1282_" d="m402 372.333v-216c0-80.817-65.516-146.333-146.333-146.333-80.818 0-146.333 65.516-146.333 146.333v216z" fill="#6d92ac"/><g id="XMLID_1197_"><path id="XMLID_1200_" d="m472 502v-24.871c0-62.368-50.559-112.927-112.927-112.927h-22.667c-24.525 0-44.407-19.882-44.407-44.407v-26.045h-72v26.046c0 24.525-19.882 44.407-44.407 44.407h-22.667c-62.366 0-112.925 50.559-112.925 112.926v24.871z" fill="#ffd0c7"/></g><path id="XMLID_1579_" d="m124.833 461.357-.553 40.643h262.889v-40.641c-14.691-8.417-31.712-13.228-49.857-13.228-33.447 0-63.056 16.362-81.312 41.503-18.256-25.141-47.866-41.503-81.312-41.503-18.144.001-35.164 4.811-49.855 13.226z" fill="#ff7d97"/><path id="XMLID_26_" d="m256 136.294c9.082-10.475 22.425-17.156 37.34-17.313 27.862-.293 50.66 23.189 50.66 51.053v33.651c0 50.988-37.495 94.216-87.972 101.421l-.028.005-.03-.004c-50.476-7.206-87.97-50.434-87.97-101.421v-33.651c0-27.864 22.798-51.346 50.66-51.053 14.915.156 28.258 6.837 37.34 17.312z" fill="#ffdcd5"/><g id="XMLID_823_"><path id="XMLID_850_" d="m412 366.193v-209.86c0-24.85-5.979-49.585-17.291-71.532-2.53-4.911-8.564-6.837-13.47-4.308-4.909 2.53-6.838 8.561-4.308 13.47 9.999 19.4 15.068 40.385 15.068 62.37v202.354c-10.484-2.918-21.525-4.485-32.927-4.485h-22.667c-18.972 0-34.406-15.435-34.406-34.406v-21.324c9.068-5.783 17.342-12.855 24.497-21.104 17.736-20.448 27.504-46.615 27.504-73.682v-33.651c0-16.229-6.673-32.141-18.307-43.653-11.356-11.237-26.189-17.402-41.832-17.402-.208 0-.419.001-.627.004-13.652.144-26.764 4.95-37.234 13.447-10.47-8.497-23.581-13.304-37.235-13.447-.209-.003-.417-.004-.626-.004-15.642 0-30.476 6.166-41.832 17.402-11.635 11.512-18.307 27.423-18.307 43.652v33.651c0 27.066 9.767 53.233 27.502 73.681 7.155 8.249 15.429 15.322 24.498 21.104v21.325c0 18.972-15.435 34.406-34.407 34.406h-22.667c-11.642 0-22.912 1.627-33.593 4.666v-202.534c0-75.174 61.16-136.333 136.334-136.333 22.138 0 43.251 5.136 62.752 15.266 4.898 2.547 10.938.636 13.483-4.265 2.546-4.9.637-10.938-4.265-13.483-22.061-11.46-46.949-17.518-71.97-17.518-86.203 0-156.334 70.131-156.334 156.333v210.182c-41.004 19.947-69.333 62.033-69.333 110.614v24.871c0 5.522 4.477 10 10 10s10-4.478 10-10v-24.871c0-56.754 46.173-102.927 102.927-102.927h22.667c30 0 54.407-24.406 54.407-54.406v-11.194c7.841 3.024 16.046 5.183 24.479 6.393.498.076 1.005.114 1.512.114.493 0 .985-.036 1.47-.106 8.454-1.208 16.679-3.371 24.539-6.401v11.194c0 30 24.406 54.406 54.406 54.406h22.667c56.754 0 102.927 46.173 102.927 102.927v24.871c0 5.522 4.478 10 10 10s10-4.478 10-10v-24.871c-.001-48.844-28.637-91.122-70.001-110.936zm-156-71.195c-44.568-7.056-78-46.063-78-91.313v-33.651c0-10.926 4.51-21.655 12.375-29.437 7.582-7.503 17.429-11.619 27.77-11.619.136 0 .274.001.41.002 11.462.121 22.356 5.174 29.889 13.864 1.899 2.19 4.656 3.449 7.556 3.449 2.899 0 5.656-1.259 7.556-3.449 7.534-8.689 18.428-13.743 29.89-13.864.137-.001.272-.002.41-.002 10.341 0 20.188 4.117 27.771 11.619 7.863 7.781 12.374 18.511 12.374 29.437v33.651c-.001 45.251-33.434 84.258-78.001 91.313z"/><path id="XMLID_851_" d="m259.249 238.608c-1.171 1.172-2.539 1.347-3.249 1.347-.711 0-2.078-.175-3.248-1.346-3.904-3.905-10.236-3.905-14.142-.001s-3.906 10.236-.001 14.142c4.646 4.646 10.822 7.205 17.392 7.205 6.569 0 12.746-2.559 17.392-7.204 3.905-3.905 3.905-10.237 0-14.143-3.908-3.904-10.238-3.904-14.144 0z"/><path id="XMLID_852_" d="m388 432.333c-5.522 0-10 4.478-10 10v3.563c-12.887-5.099-26.708-7.765-40.688-7.765-30.96 0-60.521 13.17-81.312 35.747-20.791-22.577-50.352-35.747-81.312-35.747-13.98 0-27.801 2.666-40.688 7.764v-3.563c0-5.522-4.477-10-10-10s-10 4.478-10 10v59.658c0 5.522 4.477 10 10 10s10-4.478 10-10v-34.201c12.552-6.324 26.517-9.659 40.688-9.659 28.853 0 56.225 13.974 73.22 37.38 1.881 2.591 4.89 4.124 8.092 4.124s6.21-1.533 8.091-4.124c16.996-23.406 44.368-37.38 73.221-37.38 14.171 0 28.136 3.334 40.688 9.659v34.2c0 5.522 4.478 10 10 10s10-4.478 10-10v-59.658c0-5.52-4.478-9.998-10-9.998z"/><path id="XMLID_853_" d="m290.06 177.17c-2.63 0-5.21 1.06-7.069 2.93-1.86 1.851-2.931 4.43-2.931 7.07 0 2.63 1.07 5.21 2.931 7.07 1.869 1.859 4.439 2.93 7.069 2.93s5.21-1.07 7.07-2.93c1.87-1.86 2.93-4.44 2.93-7.07 0-2.641-1.06-5.21-2.93-7.07-1.86-1.871-4.441-2.93-7.07-2.93z"/><path id="XMLID_854_" d="m221.94 177.17c-2.64 0-5.21 1.06-7.08 2.93-1.86 1.851-2.92 4.43-2.92 7.07 0 2.63 1.06 5.21 2.92 7.07 1.87 1.859 4.45 2.93 7.08 2.93s5.2-1.07 7.07-2.93c1.86-1.86 2.93-4.44 2.93-7.07 0-2.641-1.07-5.21-2.93-7.07-1.86-1.871-4.44-2.93-7.07-2.93z"/><path id="XMLID_855_" d="m502 108.979c-4.623 0-8.385-3.761-8.385-8.384 0-5.522-4.478-10-10-10s-10 4.478-10 10c0 4.623-3.761 8.384-8.384 8.384-5.522 0-10 4.478-10 10s4.478 10 10 10c4.623 0 8.384 3.762 8.384 8.385 0 5.522 4.478 10 10 10s10-4.478 10-10c0-4.623 3.762-8.385 8.385-8.385 5.522 0 10-4.478 10-10s-4.478-10-10-10z"/><path id="XMLID_856_" d="m38.384 274.512c0-4.623 3.761-8.385 8.384-8.385 5.523 0 10-4.478 10-10s-4.477-10-10-10c-4.623 0-8.384-3.762-8.384-8.385 0-5.522-4.477-10-10-10s-10 4.478-10 10c0 4.623-3.761 8.385-8.384 8.385-5.523 0-10 4.478-10 10s4.477 10 10 10c4.623 0 8.384 3.762 8.384 8.385 0 5.522 4.477 10 10 10s10-4.478 10-10z"/><path id="XMLID_857_" d="m359.31 63.02c2.63 0 5.2-1.06 7.061-2.93 1.87-1.86 2.93-4.43 2.93-7.07 0-2.63-1.06-5.21-2.93-7.069-1.86-1.86-4.431-2.931-7.061-2.931-2.64 0-5.21 1.07-7.08 2.931-1.859 1.859-2.93 4.439-2.93 7.069 0 2.641 1.07 5.21 2.93 7.07 1.87 1.87 4.44 2.93 7.08 2.93z"/></g></g></svg>